PathFileType	4	(X/Y/Z)	S01_0006_Gait_markers.trc
DataRate	CameraRate	NumFrames	NumMarkers	Units	OrigDataRate	OrigDataStartFrame	OrigNumFrames
250.000000	250.000000	4	54	mm	250.000000	0	314
Frame#	Time	HEAD_ANT			R_HEAD			L_HEAD			C7			R_BACK			L_BACK			STERNUM			R_ACROMION			R_HUM_PROX			R_HUM_ANT			R_HUM_POST			R_ELBOW_LAT			R_ELBOW_MED			R_FOREARM			R_WIRST_LAT			R_WRITS_MED			R_HAND			L_ACROMION			L_HUM_PROX			L_HUM_ANT			L_HUM_POST			L_ELBOW_LAT			L_ELBOW_MED			L_FOREARM			L_WRIST_LAT			L_WIRST_MED			L_HAND			R_ILIAC			SACRUM			L_ILIAC			R_GTROCH			R_THIGH__1			R_THIGH_2			R_THIGH_3			R_THIGH_4			R_SHANK_1			R_SHANK_2			R_SHANK_3			R_SHANK_4			R_HEEL			R_FOOT_LAT			R_FOOT_MED			L_GTROCH			L_THIGH_1			L_THIGH_2			L_THIGH_3			L_THIGH_4			L_SHANK_1			L_SHANK_2			L_SHANK_3			L_SHANK_4			L_HEEL			L_FOOT_LAT			L_FOOT_MED			
		X1	Y1	Z1	X2	Y2	Z2	X3	Y3	Z3	X4	Y4	Z4	X5	Y5	Z5	X6	Y6	Z6	X7	Y7	Z7	X8	Y8	Z8	X9	Y9	Z9	X10	Y10	Z10	X11	Y11	Z11	X12	Y12	Z12	X13	Y13	Z13	X14	Y14	Z14	X15	Y15	Z15	X16	Y16	Z16	X17	Y17	Z17	X18	Y18	Z18	X19	Y19	Z19	X20	Y20	Z20	X21	Y21	Z21	X22	Y22	Z22	X23	Y23	Z23	X24	Y24	Z24	X25	Y25	Z25	X26	Y26	Z26	X27	Y27	Z27	X28	Y28	Z28	X29	Y29	Z29	X30	Y30	Z30	X31	Y31	Z31	X32	Y32	Z32	X33	Y33	Z33	X34	Y34	Z34	X35	Y35	Z35	X36	Y36	Z36	X37	Y37	Z37	X38	Y38	Z38	X39	Y39	Z39	X40	Y40	Z40	X41	Y41	Z41	X42	Y42	Z42	X43	Y43	Z43	X44	Y44	Z44	X45	Y45	Z45	X46	Y46	Z46	X47	Y47	Z47	X48	Y48	Z48	X49	Y49	Z49	X50	Y50	Z50	X51	Y51	Z51	X52	Y52	Z52	X53	Y53	Z53	X54	Y54	Z54	

1	0	219.2834930419922	1719.050170898438	-311.9874267578121	160.3845672607422	1665.724975585938	-236.9071655273434	160.0781707763672	1673.53125	-384.3130187988277	19.17126274108887	1502.456420898438	-323.4338989257809	-61.53478240966797	1306.36376953125	-265.1560974121091	-53.72845458984375	1311.166870117188	-402.534240722656	191.0653228759766	1334.95703125	-314.197814941406	84.38523101806641	1450.209838867188	-147.2478332519528	30.09457206726074	1290.609619140625	-62.60981750488253	87.53901672363281	1203.240966796875	-52.85868072509739	-33.92583465576172	1209.177734375	-58.47200012207004	9.704486846923828	1101.6953125	-47.04334640502906	-1.503482818603516	1097.811645507812	-126.5653305053709	101.0193252563477	915.3992309570312	-32.9009895324705	142.1304931640625	848.2899169921875	-69.61997222900372	70.61723327636719	827.047119140625	-39.56208801269513	136.0235137939453	760.118408203125	-13.65138721466048	102.8945465087891	1457.825073242188	-486.855804443359	93.54159545898438	1293.618408203125	-585.4008178710934	160.9621734619141	1217.266845703125	-579.0595092773435	42.08887100219727	1212.622314453125	-615.5612792968748	109.2644348144531	1112.450805664063	-620.576721191406	53.174560546875	1099.959594726563	-567.5663452148435	246.3519134521484	963.3153686523439	-581.3543701171873	287.2631530761719	916.4438476562501	-523.9046630859373	252.4570159912109	878.1194458007814	-585.4991455078123	340.1509399414062	847.3122558593751	-562.2142944335935	89.01605224609375	1053.419189453125	-153.202697753906	-39.59812545776367	1028.263671875	-316.4794006347654	78.17558288574219	1047.18505859375	-497.8258056640623	54.26266479492188	902.9588623046875	-135.0649414062498	163.8718566894531	634.6904907226562	-153.6267700195311	212.3250732421875	667.8673095703125	-147.7848815917967	249.8054046630859	573.5232543945312	-183.7201538085936	186.8627166748047	558.2890625	-175.1580200195311	259.2400817871094	341.7649230957032	-173.4012756347655	318.8585510253906	346.0867004394532	-184.1551361083984	350.7083435058594	268.0129394531251	-201.4382171630859	289.7021789550781	246.3485107421876	-196.549575805664	348.9638366699219	40.9260215759278	-287.8424682617188	507.0731506347656	74.43042755126957	-196.8403778076172	547.5518798828125	117.0140533447266	-283.3179931640625	26.32141494750977	941.5889282226564	-497.3891906738279	28.31494140625	651.5308837890626	-482.9170837402342	-18.08035850524902	686.2043457031251	-495.3496093749998	-59.14406967163086	593.0910644531251	-461.3741149902343	3.122892379760742	577.9105224609376	-457.9666137695311	-128.7983551025391	332.5965576171876	-441.1434631347656	-189.8429107666016	331.7373046875001	-441.1171874999999	-220.638671875	252.2262268066407	-420.7755432128906	-158.5648956298828	237.2341918945313	-415.9035034179687	-317.645751953125	87.56716156005866	-343.5196533203125	-160.0716400146484	21.29828453063974	-423.7792053222656	-112.6428375244141	26.04529190063484	-322.2671813964844	
2	0.004	224.9725646972656	1717.877807617188	-311.296234130859	166.1127471923828	1664.679565429688	-236.4047698974606	165.7607269287109	1672.59912109375	-383.7502441406246	24.79703903198242	1501.489624023438	-323.2590026855465	-56.02495574951172	1305.516845703125	-265.015197753906	-47.89268112182617	1310.329345703125	-402.3454589843747	196.7727966308594	1333.926879882812	-313.7995910644528	89.91751098632812	1449.12353515625	-146.8108062744137	35.77897644042969	1289.377075195312	-62.38309478759737	93.27897644042969	1201.921752929688	-52.61270904540989	-28.16970062255859	1207.811645507812	-58.43886566162082	15.39791011810303	1100.3017578125	-47.1191253662107	-0.9697550535202026	1097.251098632812	-129.7607116699216	106.7685394287109	914.0756225585938	-32.48456573486308	147.754638671875	846.9617919921875	-69.19465637207013	76.22789764404297	825.7244262695312	-39.36903381347638	141.6723175048828	758.7470703125	-13.4192514419554	108.6808547973633	1456.829956054688	-486.5351867675778	99.56111145019531	1292.6611328125	-585.0036010742184	167.1557312011719	1216.388427734375	-578.4946289062498	48.27516937255859	1211.574340820313	-615.1112060546873	115.4744720458984	1111.496948242188	-620.0886230468748	59.56635284423828	1098.85595703125	-566.9791259765623	252.5891418457031	962.2979125976564	-581.1579589843748	293.5308227539062	915.3695678710939	-523.6469726562498	258.7509460449219	877.0433959960939	-585.2247314453123	346.3670654296875	846.3037719726564	-561.9194335937498	94.35895538330078	1051.924194335938	-153.3939666748045	-33.73980331420898	1027.233276367188	-316.3461303710935	83.94635009765625	1046.248779296875	-497.719787597656	59.82074356079102	901.8416137695312	-135.1118011474607	170.6527862548828	634.1255493164062	-153.4938354492186	218.9723052978516	667.3817749023438	-147.8762817382811	256.7088317871094	572.9041137695312	-183.8741760253905	193.9052581787109	557.58740234375	-175.3700408935546	266.9214477539062	341.3811950683594	-173.6163177490234	326.4255065917969	346.1899719238282	-183.604034423828	358.5715637207031	267.7930297851563	-202.0989837646484	297.3703308105469	246.0685729980469	-197.260757446289	357.41015625	40.8112869262696	-288.394775390625	515.5859985351562	74.86440277099614	-197.5314636230468	555.6454467773438	117.973503112793	-283.8744812011719	31.79319381713867	940.8758544921876	-497.3453979492185	33.37122344970703	650.6036376953126	-482.9057617187498	-13.01913928985596	685.3656005859376	-495.2491455078123	-54.31300354003906	592.6038208007814	-461.8246765136718	7.632553577423096	577.2026367187501	-457.5194702148436	-125.7322998046875	332.5793762207032	-441.6998291015624	-186.9076080322266	332.1851501464845	-441.5930786132812	-218.2205047607422	252.8951568603516	-421.7212524414062	-156.6018371582031	237.2962646484376	-416.1297912597656	-317.0545959472656	89.24372863769538	-344.4707641601562	-160.6389923095703	21.14177131652841	-423.7939453125	-112.6905059814453	26.07767868041999	-322.3125610351562	
3	0.008	230.6351776123047	1717.091552734375	-310.6918640136715	171.7337341308594	1663.670532226562	-235.8482666015621	171.334228515625	1671.75439453125	-383.1795959472652	30.57096099853516	1500.467163085938	-322.8043823242184	-50.33649444580078	1304.648071289062	-264.807678222656	-41.99311447143555	1309.433227539062	-401.9924011230466	202.7081146240234	1332.966552734375	-313.2881774902341	95.51651763916016	1447.9521484375	-146.4997711181637	41.21276473999023	1288.05224609375	-62.69893646240206	99.03101348876953	1200.899536132812	-52.56227111816379	-22.26245307922363	1206.633911132812	-58.26178359985325	20.46507263183594	1099.214233398438	-47.10293197631812	5.007975101470947	1095.990844726562	-129.6954650878904	112.5353088378906	912.8671264648438	-32.27112960815409	153.5677032470703	845.2911987304688	-70.57363128662091	81.81667327880859	824.549560546875	-39.67613983154278	147.2530975341797	757.548828125	-12.90248775482161	114.5287628173828	1455.917602539062	-486.163665771484	105.5581512451172	1291.77587890625	-584.6258544921872	173.1957855224609	1215.589599609375	-578.1145019531248	54.26426315307617	1210.64013671875	-614.8061523437498	121.7818908691406	1110.545043945313	-619.5139160156248	66.42914581298828	1097.631591796875	-565.8659667968748	258.9037170410156	961.2973632812501	-580.853576660156	299.7602844238281	914.4392089843751	-523.3563842773435	265.0360717773438	876.0300903320314	-584.9743041992185	352.6238098144531	845.2937622070314	-561.6654052734373	99.91969299316406	1050.715454101562	-153.4686584472654	-28.0148811340332	1026.215209960938	-316.1676025390623	89.55808258056641	1045.438720703125	-497.6258239746091	65.48646545410156	900.7232055664062	-135.0088806152342	177.5497741699219	633.4682006835938	-153.8451843261717	225.8457336425781	667.1332397460938	-147.754684448242	263.8232727050781	572.8930053710938	-184.3622283935546	201.1651153564453	557.1718139648438	-175.3579864501952	274.4132690429688	341.0798645019532	-173.7393951416015	334.0337829589844	346.0390625000001	-183.7036132812499	366.2441101074219	267.4225463867188	-202.8546142578124	305.2075500488281	245.9875793457032	-196.8137664794921	365.2001037597656	40.66412734985358	-288.71923828125	523.4296875	75.06478881835942	-198.2271881103515	563.04541015625	118.2675476074219	-284.6020202636719	37.39582443237305	940.1955566406251	-497.2798767089841	38.30995559692383	650.0111694335939	-483.2757568359373	-7.723804950714111	685.0515747070314	-496.0512390136717	-49.44953155517578	592.1779785156251	-462.1420898437499	12.61785507202148	576.8426513671876	-458.7464294433593	-122.5241622924805	332.4630737304689	-441.8632507324218	-183.45263671875	332.6158142089845	-442.0397949218749	-216.0529632568359	253.474334716797	-422.1989135742187	-154.0039215087891	237.4426422119141	-416.4658203124999	-316.4465942382812	91.06922912597663	-345.1456604003906	-160.4702453613281	21.16785049438486	-423.8394470214844	-112.7028961181641	26.11515235900886	-322.3961181640625	
4	0.012	236.3668518066406	1716.130249023438	-310.1155395507809	177.4964752197266	1662.760864257812	-235.3590240478512	177.1107177734375	1670.84765625	-382.5915527343746	36.48007965087891	1499.613647460938	-322.4251098632809	-44.60887145996094	1303.696899414062	-264.7401123046872	-36.22550201416016	1308.49951171875	-401.6227111816403	208.5173645019531	1332.054809570312	-312.8143310546872	101.0880737304688	1446.91796875	-145.9334411621091	46.89014053344727	1286.886352539062	-62.53643035888643	104.7312316894531	1199.603515625	-52.46937942504857	-16.52627754211426	1205.39990234375	-58.03702545165989	26.32406234741211	1097.98095703125	-47.07315063476538	10.85279273986816	1094.897583007812	-129.7586517333982	118.265022277832	911.6021728515625	-31.9625072479246	159.3265686035156	844.3335571289062	-68.70133209228497	87.75088500976562	823.3760375976562	-38.61092376708966	152.8869781494141	756.2353515625	-12.63723564147932	120.3991546630859	1455.066162109375	-485.7586669921872	111.5798950195312	1290.8564453125	-584.0960083007809	179.2526397705078	1214.693115234375	-577.5116577148435	60.3051643371582	1209.635009765625	-614.3920288085935	127.9522094726562	1109.620361328125	-619.0361328124998	72.61348724365234	1096.595458984375	-565.3841552734373	265.0665588378906	960.3513183593751	-580.5954589843748	305.8639526367188	913.3416137695314	-523.1188964843748	271.1435852050781	875.0081176757814	-584.8906249999998	358.7425231933594	844.2233886718751	-561.5179443359373	105.7546920776367	1049.468139648438	-153.1386871337888	-22.51295471191406	1025.355224609375	-316.109436035156	95.23220062255859	1044.518920898438	-497.6198730468748	71.25200653076172	899.5758056640625	-135.0382080078123	184.6721496582031	632.998291015625	-153.5651702880858	232.8391876220703	666.9058837890625	-147.9351348876952	271.3336486816406	573.02490234375	-184.7891387939452	208.6133117675781	556.8958129882812	-175.7305145263671	282.1326599121094	341.0202636718751	-174.1642303466796	341.7160034179688	345.6592407226563	-184.3539886474609	373.6553649902344	267.0738220214844	-203.6496887207031	312.664306640625	245.7564392089844	-197.2234802246093	371.9875183105469	40.16855621337897	-288.6947937011719	530.4832153320312	74.94405364990239	-198.8535614013672	569.986328125	117.9524230957032	-285.4614868164062	42.90200805664062	939.5606689453126	-497.2582397460935	43.5566291809082	649.3370971679689	-483.5074768066405	-2.715215444564819	684.2102661132814	-495.4924926757811	-44.30203628540039	591.5174560546876	-462.6191101074218	17.33911895751953	575.9456787109376	-457.0780639648436	-119.2933807373047	332.5674438476564	-442.4450988769531	-180.3987579345703	333.2693176269532	-442.8967285156249	-213.5209045410156	254.268768310547	-423.0254211425781	-151.9993286132812	237.5291595458985	-416.9724426269531	-315.8862915039062	92.7824783325196	-346.1138305664062	-160.3011169433594	21.18899917602548	-423.9735107421875	-112.7615203857422	26.12553215026863	-322.4620971679688	
